<svg xmlns="http://www.w3.org/2000/svg" viewBox="0 0 24 24" fill="currentColor">
  <path d="M12 0C5.37 0 0 5.37 0 12c0 5.3 3.438 9.8 8.205 11.385.6.113.82-.26.82-.577v-2.03c-3.338.726-4.033-1.415-4.033-1.415-.546-1.387-1.333-1.757-1.333-1.757-1.09-.745.082-.73.082-.73 1.205.084 1.84 1.24 1.84 1.24 1.07 1.834 2.807 1.304 3.492.997.107-.776.42-1.304.763-1.604-2.665-.3-5.467-1.333-5.467-5.932 0-1.31.47-2.38 1.24-3.22-.124-.303-.537-1.523.117-3.176 0 0 1.01-.322 3.3 1.23a11.5 11.5 0 0 1 3-.404c1.02.005 2.045.137 3 .404 2.29-1.552 3.297-1.23 3.297-1.23.655 1.653.243 2.873.12 3.176.77.84 1.237 1.91 1.237 3.22 0 4.61-2.807 5.63-5.48 5.922.43.37.823 1.102.823 2.222v3.293c0 .32.216.694.825.576C20.565 21.796 24 17.297 24 12c0-6.63-5.37-12-12-12z"/>
</svg>
