<svg xmlns:xlink="http://www.w3.org/1999/xlink" width="147.456pt" height="147.456pt" viewBox="0 0 147.456 147.456" xmlns="http://www.w3.org/2000/svg" version="1.1">
	<defs>
		<style type="text/css">*{stroke-linejoin: round; stroke-linecap: butt; background-color: transparent;}</style>
	</defs>
	<g id="figure_1">
		<g id="axes_1">
			<g id="patch_2">
				<path d="M 134.208 73.728 
					C 134.208 68.442599 133.515156 63.179929 132.147194 58.074624 
					C 130.779232 52.969319 128.747917 48.065291 126.105216 43.488 
					L 113.010912 51.048 
					C 114.992938 54.480968 116.516424 58.158989 117.542395 61.987968 
					C 118.568367 65.816947 119.088 69.76395 119.088 73.728 
					L 134.208 73.728 
					z
					" clip-path="url(#p123a188adc)" style="fill: #ffd93b"/>
			</g>
			<g id="patch_3">
				<path d="M 119.088 73.728 
					C 119.088 69.76395 118.568367 65.816947 117.542395 61.987968 
					C 116.516424 58.158989 114.992938 54.480968 113.010912 51.048 
					L 99.916608 58.608 
					C 101.237958 60.896646 102.253616 63.34866 102.937597 65.901312 
					C 103.621578 68.453965 103.968 71.0853 103.968 73.728 
					L 119.088 73.728 
					z
					" clip-path="url(#p123a188adc)" style="fill: #ffe64d"/>
			</g>
			<g id="patch_4">
				<path d="M 126.105216 43.488 
					C 123.462516 38.910709 120.231161 34.699524 116.493818 30.962182 
					C 112.756476 27.224839 108.545291 23.993484 103.968 21.350784 
					L 96.408 34.445088 
					C 99.840968 36.427113 102.999357 38.850629 105.802364 41.653636 
					C 108.605371 44.456643 111.028887 47.615032 113.010912 51.048 
					L 126.105216 43.488 
					z
					" clip-path="url(#p123a188adc)" style="fill: #ffa336"/>
			</g>
			<g id="patch_5">
				<path d="M 113.010912 51.048 
					C 111.028887 47.615032 108.605371 44.456643 105.802364 41.653636 
					C 102.999357 38.850629 99.840968 36.427113 96.408 34.445088 
					L 88.848 47.539392 
					C 91.136646 48.860742 93.242238 50.47642 95.110909 52.345091 
					C 96.97958 54.213762 98.595258 56.319354 99.916608 58.608 
					L 113.010912 51.048 
					z
					" clip-path="url(#p123a188adc)" style="fill: #ffb947"/>
			</g>
			<g id="patch_6">
				<path d="M 103.968 21.350784 
					C 99.390709 18.708083 94.486681 16.676768 89.381376 15.308806 
					C 84.276071 13.940844 79.013401 13.248 73.728 13.248 
					L 73.728 28.368 
					C 77.69205 28.368 81.639053 28.887633 85.468032 29.913605 
					C 89.297011 30.939576 92.975032 32.463062 96.408 34.445088 
					L 103.968 21.350784 
					z
					" clip-path="url(#p123a188adc)" style="fill: #ef3e57"/>
			</g>
			<g id="patch_7">
				<path d="M 96.408 34.445088 
					C 92.975032 32.463062 89.297011 30.939576 85.468032 29.913605 
					C 81.639053 28.887633 77.69205 28.368 73.728 28.368 
					L 73.728 43.488 
					C 76.3707 43.488 79.002035 43.834422 81.554688 44.518403 
					C 84.10734 45.202384 86.559354 46.218042 88.848 47.539392 
					L 96.408 34.445088 
					z
					" clip-path="url(#p123a188adc)" style="fill: #ef5c59"/>
			</g>
			<g id="patch_8">
				<path d="M 73.728 13.248 
					C 68.442599 13.248 63.179929 13.940844 58.074624 15.308806 
					C 52.969319 16.676768 48.065291 18.708083 43.488 21.350784 
					L 51.048 34.445088 
					C 54.480968 32.463062 58.158989 30.939576 61.987968 29.913605 
					C 65.816947 28.887633 69.76395 28.368 73.728 28.368 
					L 73.728 13.248 
					z
					" clip-path="url(#p123a188adc)" style="fill: #ef476f"/>
			</g>
			<g id="patch_9">
				<path d="M 73.728 28.368 
					C 69.76395 28.368 65.816947 28.887633 61.987968 29.913605 
					C 58.158989 30.939576 54.480968 32.463062 51.048 34.445088 
					L 58.608 47.539392 
					C 60.896646 46.218042 63.34866 45.202384 65.901312 44.518403 
					C 68.453965 43.834422 71.0853 43.488 73.728 43.488 
					L 73.728 28.368 
					z
					" clip-path="url(#p123a188adc)" style="fill: #f26880"/>
			</g>
			<g id="patch_10">
				<path d="M 43.488 21.350784 
					C 38.910709 23.993484 34.699524 27.224839 30.962182 30.962182 
					C 27.224839 34.699524 23.993484 38.910709 21.350784 43.488 
					L 34.445088 51.048 
					C 36.427113 47.615032 38.850629 44.456643 41.653636 41.653636 
					C 44.456643 38.850629 47.615032 36.427113 51.048 34.445088 
					L 43.488 21.350784 
					z
					" clip-path="url(#p123a188adc)" style="fill: #d948c7"/>
			</g>
			<g id="patch_11">
				<path d="M 51.048 34.445088 
					C 47.615032 36.427113 44.456643 38.850629 41.653636 41.653636 
					C 38.850629 44.456643 36.427113 47.615032 34.445088 51.048 
					L 47.539392 58.608 
					C 48.860742 56.319354 50.47642 54.213762 52.345091 52.345091 
					C 54.213762 50.47642 56.319354 48.860742 58.608 47.539392 
					L 51.048 34.445088 
					z
					" clip-path="url(#p123a188adc)" style="fill: #da74d0"/>
			</g>
			<g id="patch_12">
				<path d="M 21.350784 43.488 
					C 18.708083 48.065291 16.676768 52.969319 15.308806 58.074624 
					C 13.940844 63.179929 13.248 68.442599 13.248 73.728 
					L 28.368 73.728 
					C 28.368 69.76395 28.887633 65.816947 29.913605 61.987968 
					C 30.939576 58.158989 32.463062 54.480968 34.445088 51.048 
					L 21.350784 43.488 
					z
					" clip-path="url(#p123a188adc)" style="fill: #935fa4"/>
			</g>
			<g id="patch_13">
				<path d="M 34.445088 51.048 
					C 32.463062 54.480968 30.939576 58.158989 29.913605 61.987968 
					C 28.887633 65.816947 28.368 69.76395 28.368 73.728 
					L 43.488 73.728 
					C 43.488 71.0853 43.834422 68.453965 44.518403 65.901312 
					C 45.202384 63.34866 46.218042 60.896646 47.539392 58.608 
					L 34.445088 51.048 
					z
					" clip-path="url(#p123a188adc)" style="fill: #a56cba"/>
			</g>
			<g id="patch_14">
				<path d="M 13.248 73.728 
					C 13.248 79.013401 13.940844 84.276071 15.308806 89.381376 
					C 16.676768 94.486681 18.708083 99.390709 21.350784 103.968 
					L 34.445088 96.408 
					C 32.463062 92.975032 30.939576 89.297011 29.913605 85.468032 
					C 28.887633 81.639053 28.368 77.69205 28.368 73.728 
					L 13.248 73.728 
					z
					" clip-path="url(#p123a188adc)" style="fill: #2d61a6"/>
			</g>
			<g id="patch_15">
				<path d="M 28.368 73.728 
					C 28.368 77.69205 28.887633 81.639053 29.913605 85.468032 
					C 30.939576 89.297011 32.463062 92.975032 34.445088 96.408 
					L 47.539392 88.848 
					C 46.218042 86.559354 45.202384 84.10734 44.518403 81.554688 
					C 43.834422 79.002035 43.488 76.3707 43.488 73.728 
					L 28.368 73.728 
					z
					" clip-path="url(#p123a188adc)" style="fill: #4779bf"/>
			</g>
			<g id="patch_16">
				<path d="M 21.350784 103.968 
					C 23.993484 108.545291 27.224839 112.756476 30.962182 116.493818 
					C 34.699524 120.231161 38.910709 123.462516 43.488 126.105216 
					L 51.048 113.010912 
					C 47.615032 111.028887 44.456643 108.605371 41.653636 105.802364 
					C 38.850629 102.999357 36.427113 99.840968 34.445088 96.408 
					L 21.350784 103.968 
					z
					" clip-path="url(#p123a188adc)" style="fill: #57c7f1"/>
			</g>
			<g id="patch_17">
				<path d="M 34.445088 96.408 
					C 36.427113 99.840968 38.850629 102.999357 41.653636 105.802364 
					C 44.456643 108.605371 47.615032 111.028887 51.048 113.010912 
					L 58.608 99.916608 
					C 56.319354 98.595258 54.213762 96.97958 52.345091 95.110909 
					C 50.47642 93.242238 48.860742 91.136646 47.539392 88.848 
					L 34.445088 96.408 
					z
					" clip-path="url(#p123a188adc)" style="fill: #82d9f6"/>
			</g>
			<g id="patch_18">
				<path d="M 43.488 126.105216 
					C 48.065291 128.747917 52.969319 130.779232 58.074624 132.147194 
					C 63.179929 133.515156 68.442599 134.208 73.728 134.208 
					L 73.728 119.088 
					C 69.76395 119.088 65.816947 118.568367 61.987968 117.542395 
					C 58.158989 116.516424 54.480968 114.992938 51.048 113.010912 
					L 43.488 126.105216 
					z
					" clip-path="url(#p123a188adc)" style="fill: #00e3c0"/>
			</g>
			<g id="patch_19">
				<path d="M 51.048 113.010912 
					C 54.480968 114.992938 58.158989 116.516424 61.987968 117.542395 
					C 65.816947 118.568367 69.76395 119.088 73.728 119.088 
					L 73.728 103.968 
					C 71.0853 103.968 68.453965 103.621578 65.901312 102.937597 
					C 63.34866 102.253616 60.896646 101.237958 58.608 99.916608 
					L 51.048 113.010912 
					z
					" clip-path="url(#p123a188adc)" style="fill: #3dedc7"/>
			</g>
			<g id="patch_20">
				<path d="M 73.728 134.208 
					C 79.013401 134.208 84.276071 133.515156 89.381376 132.147194 
					C 94.486681 130.779232 99.390709 128.747917 103.968 126.105216 
					L 96.408 113.010912 
					C 92.975032 114.992938 89.297011 116.516424 85.468032 117.542395 
					C 81.639053 118.568367 77.69205 119.088 73.728 119.088 
					L 73.728 134.208 
					z
					" clip-path="url(#p123a188adc)" style="fill: #5eea00"/>
			</g>
			<g id="patch_21">
				<path d="M 73.728 119.088 
					C 77.69205 119.088 81.639053 118.568367 85.468032 117.542395 
					C 89.297011 116.516424 92.975032 114.992938 96.408 113.010912 
					L 88.848 99.916608 
					C 86.559354 101.237958 84.10734 102.253616 81.554688 102.937597 
					C 79.002035 103.621578 76.3707 103.968 73.728 103.968 
					L 73.728 119.088 
					z
					" clip-path="url(#p123a188adc)" style="fill: #88f542"/>
			</g>
			<g id="patch_22">
				<path d="M 103.968 126.105216 
					C 108.545291 123.462516 112.756476 120.231161 116.493818 116.493818 
					C 120.231161 112.756476 123.462516 108.545291 126.105216 103.968 
					L 113.010912 96.408 
					C 111.028887 99.840968 108.605371 102.999357 105.802364 105.802364 
					C 102.999357 108.605371 99.840968 111.028887 96.408 113.010912 
					L 103.968 126.105216 
					z
					" clip-path="url(#p123a188adc)" style="fill: #b9f500"/>
			</g>
			<g id="patch_23">
				<path d="M 96.408 113.010912 
					C 99.840968 111.028887 102.999357 108.605371 105.802364 105.802364 
					C 108.605371 102.999357 111.028887 99.840968 113.010912 96.408 
					L 99.916608 88.848 
					C 98.595258 91.136646 96.97958 93.242238 95.110909 95.110909 
					C 93.242238 96.97958 91.136646 98.595258 88.848 99.916608 
					L 96.408 113.010912 
					z
					" clip-path="url(#p123a188adc)" style="fill: #d2f54d"/>
			</g>
			<g id="patch_24">
				<path d="M 126.105216 103.968 
					C 128.747917 99.390709 130.779232 94.486681 132.147194 89.381376 
					C 133.515156 84.276071 134.208 79.013401 134.208 73.728 
					L 119.088 73.728 
					C 119.088 77.69205 118.568367 81.639053 117.542395 85.468032 
					C 116.516424 89.297011 114.992938 92.975032 113.010912 96.408 
					L 126.105216 103.968 
					z
					" clip-path="url(#p123a188adc)" style="fill: #ffe64d"/>
			</g>
			<g id="patch_25">
				<path d="M 113.010912 96.408 
					C 114.992938 92.975032 116.516424 89.297011 117.542395 85.468032 
					C 118.568367 81.639053 119.088 77.69205 119.088 73.728 
					L 103.968 73.728 
					C 103.968 76.3707 103.621578 79.002035 102.937597 81.554688 
					C 102.253616 84.10734 101.237958 86.559354 99.916608 88.848 
					L 113.010912 96.408 
					z
					" clip-path="url(#p123a188adc)" style="fill: #ffef7f"/>
			</g>
		</g>
	</g>
	<defs>
		<clipPath id="p123a188adc">
			<rect x="7.2" y="7.2" width="133.056" height="133.056"/>
		</clipPath>
	</defs>
</svg>
